<svg height="217" preserveAspectRatio="xMidYMid" viewBox="0 0 177 217" width="177" xmlns="http://www.w3.org/2000/svg"><path d="m23.369 148.305v.008s1.448 1.531 1.448 1.531c.363.385.709.769 1.086 1.147h.016s62.565 65.903 62.565 65.903 62.535-65.903 62.535-65.903c.075-.075.152-.158.227-.234 0 0 1.116-1.185 1.116-1.185s1.193-1.259 1.193-1.259v-.008s.044-.053.044-.053c15.045-16.395 23.331-37.622 23.331-59.767 0-48.781-39.689-88.471-88.461-88.471-48.789 0-88.476 39.69-88.476 88.471 0 22.13 8.285 43.357 23.329 59.767 0 0 .047.053.047.053z" fill="#2476ff" fill-rule="evenodd"/><circle cx="102" cy="97" fill="#1c5ac1" r="47"/><path d="m88.469 134.58c25.473 0 46.132-20.652 46.132-46.133 0-25.474-20.659-46.132-46.132-46.132-25.489 0-46.148 20.658-46.148 46.132 0 25.481 20.659 46.133 46.148 46.133z" fill="#ededed" fill-rule="evenodd"/></svg>